/* XPM */
static char *emelfm_[] = {
/* columns rows colors chars-per-pixel */
"32 32 256 2",
"   c #584714",
".  c #604E16",
"X  c #6E5A1C",
"o  c #665318",
"O  c #735D1B",
"+  c #76611E",
"@  c #79631E",
"#  c #776120",
"$  c #796423",
"%  c #7D6925",
"&  c #7B6728",
"*  c #7E6A2A",
"=  c #1C1B7D",
"-  c #1B1976",
";  c #242277",
":  c #29277A",
">  c #39367D",
",  c #32307D",
"<  c #534F6F",
"1  c #5F5A6B",
"2  c #4D4A7C",
"3  c #4B4879",
"4  c #524E73",
"5  c #5D5975",
"6  c #5C577D",
"7  c #625E7B",
"8  c #625D77",
"9  c #716B6D",
"0  c #696470",
"q  c #6B687A",
"w  c #736C73",
"e  c #7F7878",
"r  c #7E7974",
"t  c #826F28",
"y  c #816C22",
"u  c #84712D",
"i  c #88752A",
"p  c #8C792B",
"a  c #897427",
"s  c #907D2A",
"d  c #826F32",
"f  c #847134",
"g  c #897634",
"h  c #8D7C36",
"j  c #897638",
"k  c #8C793B",
"l  c #907F3A",
"z  c #907E34",
"x  c #887E5C",
"c  c #827C6B",
"v  c #988730",
"b  c #91803A",
"n  c #9B8B3B",
"m  c #958434",
"M  c #AB9C36",
"N  c #A2923B",
"B  c #A19131",
"V  c #B3A53B",
"C  c #948344",
"Z  c #9A8A43",
"A  c #99894D",
"S  c #9F904C",
"D  c #9F905C",
"F  c #A49544",
"G  c #A79847",
"H  c #A2954E",
"J  c #AC9E4B",
"K  c #A39454",
"L  c #A1935E",
"P  c #A7995C",
"I  c #AB9E59",
"U  c #AC9E56",
"Y  c #AEA04D",
"T  c #B4A64E",
"R  c #BAAE4C",
"E  c #B9AC40",
"W  c #BBAF58",
"Q  c #B6A956",
"!  c #BEB35B",
"~  c #928C6C",
"^  c #9B946C",
"/  c #878377",
"(  c #9D9773",
")  c #969279",
"_  c #A29A67",
"`  c #ACA265",
"'  c #AFA966",
"]  c #AFA36C",
"[  c #B1A764",
"{  c #B5AC65",
"}  c #BAAF67",
"|  c #B4A96B",
" . c #BAAF68",
".. c #BCB266",
"X. c #BBB068",
"o. c #ABA471",
"O. c #B6AA76",
"+. c #BCB177",
"@. c #C1B648",
"#. c #C8BD47",
"$. c #C0B65D",
"%. c #C3B956",
"&. c #C6BC62",
"*. c #C8BE64",
"=. c #C3BB6B",
"-. c #C4BC7B",
";. c #C3B972",
":. c #CEC44D",
">. c #D4CA4D",
",. c #CCC55E",
"<. c #CBC156",
"1. c #D0C75F",
"2. c #D5CC5E",
"3. c #D8CF5C",
"4. c #D2C857",
"5. c #DCD35A",
"6. c #E4DC57",
"7. c #E0D759",
"8. c #E2D959",
"9. c #E9E155",
"0. c #EBE35A",
"q. c #CCC361",
"w. c #CBC268",
"e. c #D0C760",
"r. c #D4CE6D",
"t. c #CBC271",
"y. c #CEC57A",
"u. c #D6CE72",
"i. c #DFD773",
"p. c #DAD378",
"a. c #E3DA6A",
"s. c #EBE463",
"d. c #ECE56B",
"f. c #ECE672",
"g. c #E5E07F",
"h. c #EDE77B",
"j. c #EDE87B",
"k. c #E7E172",
"l. c #1E1C83",
"z. c #1F1E89",
"x. c #201F8D",
"c. c #212085",
"v. c #24238B",
"b. c #2D2D84",
"n. c #3C3A81",
"m. c #222193",
"M. c #2E2C94",
"N. c #232299",
"B. c #393795",
"V. c #2423A2",
"C. c #2524AB",
"Z. c #3937A7",
"A. c #2625B4",
"S. c #2626BA",
"D. c #2827BD",
"F. c #403EAF",
"G. c #4A4787",
"H. c #484697",
"J. c #605D8D",
"K. c #6C6887",
"L. c #6F6B93",
"P. c #73709F",
"I. c #757296",
"U. c #5D5BAD",
"Y. c #4241B3",
"T. c #504FBE",
"R. c #5250BC",
"E. c #605EAA",
"W. c #6361A6",
"Q. c #2727C4",
"!. c #2827C7",
"~. c #2827C9",
"^. c #2828CD",
"/. c #3A39C6",
"(. c #2929D6",
"). c #2A2ADD",
"_. c #3131D9",
"`. c #2B2BEE",
"'. c #2A2AE2",
"]. c #3B3BE6",
"[. c #3131EB",
"{. c #403EC3",
"}. c #4846D6",
"|. c #4948D5",
" X c #4544DC",
".X c #5857D5",
"XX c #6867C7",
"oX c #6766CB",
"OX c #706EC9",
"+X c #6867D2",
"@X c #4040E1",
"#X c #8B8788",
"$X c #948E82",
"%X c #97928E",
"&X c #858198",
"*X c #96919A",
"=X c #A49F88",
"-X c #A29D9B",
";X c #A8A386",
":X c #B0AC84",
">X c #BEB587",
",X c #BDB488",
"<X c #BEBA9D",
"1X c #918EAC",
"2X c #9693AA",
"3X c #8886BD",
"4X c #908DB0",
"5X c #A09DB2",
"6X c #ACAAAC",
"7X c #C1B981",
"8X c #CBC385",
"9X c #CEC78F",
"0X c #D7CF88",
"qX c #D6CE83",
"wX c #D7D084",
"eX c #DBD484",
"rX c #CBC696",
"tX c #D1C997",
"yX c #D7D093",
"uX c #D7D19E",
"iX c #DED99B",
"pX c #DCD696",
"aX c #E4DE82",
"sX c #E0DB8A",
"dX c #E2DC99",
"fX c #EEE984",
"gX c #EFEA8D",
"hX c #E8E389",
"jX c #EFEB94",
"kX c #E8E59F",
"lX c #EEE99A",
"zX c #E7E392",
"xX c #F0EC9B",
"cX c #CCC8A2",
"vX c #D7D2AC",
"bX c #D8D3AA",
"nX c #DDD8A4",
"mX c #E4DFA6",
"MX c #E9E6AF",
"NX c #EDEAAD",
"BX c #F0EDA4",
"VX c #F1EEAC",
"CX c #EDEBBE",
"ZX c #E7E3B6",
"AX c #F1EFB2",
"SX c #F2F0B7",
"DX c #F2F0BA",
"FX c #908EC0",
"GX c #E9E8C7",
"HX c #EFEECD",
"JX c #E5E3C0",
"KX c #F0EECB",
"LX c #F3F1C5",
"PX c #F3F2CC",
"IX c #F4F3D1",
"UX c None",
/* pixels */
"UXUXUXUXUXUXUXUXUXUXUXUXUXUXUXUXUXUXUXUXUXUXUXUXUXUXUXUXUXUXUXUX",
"UXUXUXUXUXUXUXUXUXUXUXUXUXUXUXUXUXUXUXUX$ & # # $ UXUXUXUXUXUXUX",
"UXUXUXUXUXUXUXUXUXUXUXUXUXUXUX$ & O d D ,XvXGXJX* UXUXUXUXUXUXUX",
"UXUXUXUXUXUXUXUXUXUX$ & O f _ >XvXHXIXIXIXIXPXIXL UXUXUXUXUXUXUX",
"UXUXUXUXUX$ $ O f L 7XvXKXIXIXPXPXPXPXLXZX9X] C j $ * + UXUXUXUX",
"UXUX$ d L >XbXHXIXPXIXPXPXPXLXCXtXO.A y & A ] 9XMXSXSXK UXUXUXUX",
"UX$ O.PXPXPXPXPXLXLXCXuX+.D f $ C ` 7XMXAXAXAXAXAXAXNXK O UXUXUX",
"UXO ZXLXLXLXnX-.P j $ j P -.iXAXAXAXSXSXAXNXpX;.K g # h C t UXUX",
"UXO DXDX8Xj f K +.yXNXAXAXAXVXAXVXdX-.U b $ u A } qXlXBXxXeX$ UX",
"UXO AXiX% 8XVXVXVXVXVXVXkX8XQ Z * y Z [ y.zXxXlXxXjXjXjXjXhX+ UX",
"UXO VX| I VXVXBX0X .S u % l Y ;.sXxXxXjXjXjXjXjXjXgXgXgXgXp.# UX",
"UXO BXK X.xXwXu t F =.wXcXFX+X+X3XiXgXgXzX5XXXXX2XhXfXfXfX&.$ UX",
"UXO xXZ ;.jXt =.jXjXcX.X`.`.`.`.`.].tXrX|.).(.^.!.U.j.j.j.T + UX",
"UXO jXb t.aX$ gXgX6X[.`.].OX3XoX`.`.|._.(.T.*XE.A.A.:Xf.d.N UXUX",
"UXO gXi p.w.z fX<X`.`.3XaXj.j.j.2X'.(.R.*Xf.f.d.H.V.#Xd.d.a UXUX",
"UXO j.% i.R F g.@X`.4Xf.h.f.f.f.k./.^.&Xd.d.d.d.H.N.) s.0.+ UXUX",
"UXO j.@ f.Z R 2X`..Xk.d.f.d.d.d.s.W.D.L.s.s.s.=.m.m.5.0.>.@ UXUX",
"UXO a.@ d.p <. X`.-Xd.s.s.s.u.o.I.Z.C.J.0.0.6.G.m.r 9.9.V @ UXUX",
"UXO >.p s.$ t.`.'.r.r.;XP.Y.D.A.C.V.B./ 0.9.q v.7 9.5.9.p UXUXUX",
"UXO R v :.i ;X'.)./.^.Q.D.A.Z.K.( q.6.6.6.~ x.2 5.5.5.5.+ UXUXUX",
"UXO V M M M %X(.^.!.Z.L.( q.6.6.8.8.8.5.' v.n.1.5.! ~ S @ UXUXUX",
"UXO B V a :.#X!.D.q.8.8.7.5.5.5.5.5.5...b.c.9 5 , = ; h UXUXUXUX",
"UXO p V @ 5.$XA.C.=.5.5.5.3.5.5.3.3.,.3 l.l.= = - - 1 + UXUXUXUX",
"UX+ y N v 5.o.C.V./ 3.e.3.2.1.1.1.` > , = = ; < / { T + UXUXUXUX",
"UXO #.t R 2.1.M.N.M.{ e.e.e.1.[ 6 l.= 4 9 _ &.&.<.&.u   UXUXUXUX",
"UXO %.% 1.e.w.c m.m.v.6 w 8 > x.= ; c &.*.&.&.! G % O UXUXUXUXUX",
"UXO n n q.e.w.*.7 x.l.x.l.l.= : 0 ..$.Y n u + O X UXUXUXUXUXUXUX",
"UXO T ! *.&.*.*.*.^ 8 2 2 0 x Z i $ O O . UXUXUXUXUXUXUXUXUXUXUX",
"UXO $.&.*.&.&.*.&.W G m % O # o UXUXUXUXUXUXUXUXUXUXUXUXUXUXUXUX",
"UXO F $.$.J n t O + X   UXUXUXUXUXUXUXUXUXUXUXUXUXUXUXUXUXUXUXUX",
"UXUX$ O O # . UXUXUXUXUXUXUXUXUXUXUXUXUXUXUXUXUXUXUXUXUXUXUXUXUX",
"UXUXUXUXUXUXUXUXUXUXUXUXUXUXUXUXUXUXUXUXUXUXUXUXUXUXUXUXUXUXUXUX"
};
